# xmcd
#
# Track frame offsets: 
#        150
#        25480
#        67870
#        94143
#        111173
#        129020
#        154035
#        172325
#        199203
#        226700
#
# Disc length: 3511 seconds
#
# Revision: 0
# Processed by: cddbd v1.5.2PL0 Copyright (c) Steve Scherf et al.
# Submitted via: ExactAudioCopy v1.0b3
#
DISCID=7c0db50a
DTITLE=Duy Khanh, Nhat Truong - Chieu Tay Do
DYEAR=1990
DGENRE=
TTITLE0=Duy Khanh - Chieu Tay do
TTITLE1=Nhat Truong - Hon vong phu 1 and 2
TTITLE2=Duy Khanh - Di ve phia mat troi
TTITLE3=Nhat Truong - Hon vong phu 3
TTITLE4=Duy Khanh - Nhung nguoi vuot gian kho
TTITLE5=Nhat Truong - Tieng coi trong suong dem
TTITLE6=Duy Khanh - Tinh em bien rong song dai
TTITLE7=Nhat Truong - Mua tren pho Hue
TTITLE8=Duy Khanh - Ai nho chang ai
TTITLE9=Nhat Truong - Ong lai do
EXTD=
EXTT0=
EXTT1=
EXTT2=
EXTT3=
EXTT4=
EXTT5=
EXTT6=
EXTT7=
EXTT8=
EXTT9=
PLAYORDER=
